# xmcd
#
# Track frame offsets: 
#        150
#        7950
#        14426
#        29137
#        38437
#        53533
#        61333
#        74067
#        89116
#        104963
#        109913
#        123905
#        136640
#        141605
#
# Disc length: 2081 seconds
#
# Revision: 0
# Processed by: cddbd v1.5.2PL0 Copyright (c) Steve Scherf et al.
# Submitted via: ExactAudioCopy v1.2
#
DISCID=ce081f0e
DTITLE=Liam Alone - His Story
DYEAR=2019
DGENRE=Blues
TTITLE0=Fly Away
TTITLE1=Paper Plane
TTITLE2=Cross My Heart
TTITLE3=Til the Day I Die
TTITLE4=Nobody Knows
TTITLE5=Down by the River
TTITLE6=Shooting Star
TTITLE7=Rocket Ship
TTITLE8=Up, up and Away
TTITLE9=The Edge
TTITLE10=Black Cadillac
TTITLE11=The Loop
TTITLE12=Falling
TTITLE13=The Rest Is His Story
EXTD=
EXTT0=
EXTT1=
EXTT2=
EXTT3=
EXTT4=
EXTT5=
EXTT6=
EXTT7=
EXTT8=
EXTT9=
EXTT10=
EXTT11=
EXTT12=
EXTT13=
PLAYORDER=
